%TF.GenerationSoftware,KiCad,Pcbnew,9.0.1-9.0.1-0~ubuntu24.04.1*%
%TF.CreationDate,2025-04-06T11:06:09+01:00*%
%TF.ProjectId,AccessibleSwitches,41636365-7373-4696-926c-655377697463,rev?*%
%TF.SameCoordinates,Original*%
%TF.FileFunction,Copper,L2,Bot*%
%TF.FilePolarity,Positive*%
%FSLAX46Y46*%
G04 Gerber Fmt 4.6, Leading zero omitted, Abs format (unit mm)*
G04 Created by KiCad (PCBNEW 9.0.1-9.0.1-0~ubuntu24.04.1) date 2025-04-06 11:06:09*
%MOMM*%
%LPD*%
G01*
G04 APERTURE LIST*
%TA.AperFunction,ComponentPad*%
%ADD10C,1.701800*%
%TD*%
%TA.AperFunction,ComponentPad*%
%ADD11R,1.701800X1.701800*%
%TD*%
%TA.AperFunction,ComponentPad*%
%ADD12R,1.600000X1.600000*%
%TD*%
%TA.AperFunction,ComponentPad*%
%ADD13C,1.600000*%
%TD*%
%TA.AperFunction,ComponentPad*%
%ADD14R,1.700000X1.700000*%
%TD*%
%TA.AperFunction,ComponentPad*%
%ADD15O,1.700000X1.700000*%
%TD*%
G04 APERTURE END LIST*
D10*
%TO.P,SW1,1,1*%
%TO.N,+3.3V*%
X143602379Y-91000000D03*
D11*
%TO.P,SW1,2,2*%
%TO.N,GND*%
X148682379Y-91000000D03*
D10*
%TO.P,SW1,3*%
%TO.N,N/C*%
X153762379Y-91000000D03*
%TD*%
D12*
%TO.P,C2,1*%
%TO.N,+3.3V*%
X151500000Y-83500000D03*
D13*
%TO.P,C2,2*%
%TO.N,GND*%
X151500000Y-81000000D03*
%TD*%
D14*
%TO.P,J1,1,Pin_1*%
%TO.N,+3.3V*%
X147432379Y-101000000D03*
D15*
%TO.P,J1,2,Pin_2*%
%TO.N,GND*%
X149972379Y-101000000D03*
%TD*%
%TA.AperFunction,Conductor*%
%TO.N,GND*%
G36*
X149082796Y-76505639D02*
G01*
X149131976Y-76508216D01*
X149834390Y-76545027D01*
X149840818Y-76545533D01*
X150589376Y-76624209D01*
X150595752Y-76625049D01*
X151262352Y-76730628D01*
X151339116Y-76742787D01*
X151345499Y-76743970D01*
X151539770Y-76785263D01*
X152081666Y-76900447D01*
X152087953Y-76901956D01*
X152814961Y-77096757D01*
X152821163Y-77098594D01*
X153536952Y-77331169D01*
X153543049Y-77333327D01*
X154001089Y-77509153D01*
X154245686Y-77603045D01*
X154251679Y-77605527D01*
X154939245Y-77911651D01*
X154945071Y-77914429D01*
X155615676Y-78256120D01*
X155621381Y-78259218D01*
X156273176Y-78635532D01*
X156278675Y-78638902D01*
X156909901Y-79048825D01*
X156915218Y-79052479D01*
X157199949Y-79259348D01*
X157524102Y-79494859D01*
X157529253Y-79498811D01*
X158114151Y-79972453D01*
X158119087Y-79976669D01*
X158678387Y-80480264D01*
X158683096Y-80484733D01*
X159215266Y-81016903D01*
X159219735Y-81021612D01*
X159723330Y-81580912D01*
X159727546Y-81585848D01*
X160201188Y-82170746D01*
X160205139Y-82175896D01*
X160551147Y-82652135D01*
X160647509Y-82784765D01*
X160651186Y-82790115D01*
X161061086Y-83421306D01*
X161064478Y-83426841D01*
X161440781Y-84078618D01*
X161443879Y-84084323D01*
X161785561Y-84754911D01*
X161788356Y-84760771D01*
X162094470Y-85448316D01*
X162096954Y-85454313D01*
X162366667Y-86156938D01*
X162368834Y-86163058D01*
X162601401Y-86878825D01*
X162603245Y-86885049D01*
X162798040Y-87612033D01*
X162799555Y-87618346D01*
X162956029Y-88354500D01*
X162957212Y-88360883D01*
X163074945Y-89104215D01*
X163075793Y-89110652D01*
X163154464Y-89859160D01*
X163154973Y-89865631D01*
X163194361Y-90617203D01*
X163194531Y-90623693D01*
X163194531Y-91376306D01*
X163194361Y-91382796D01*
X163154973Y-92134368D01*
X163154464Y-92140839D01*
X163075793Y-92889347D01*
X163074945Y-92895784D01*
X162957212Y-93639116D01*
X162956029Y-93645499D01*
X162799555Y-94381653D01*
X162798040Y-94387966D01*
X162603245Y-95114950D01*
X162601401Y-95121174D01*
X162368834Y-95836941D01*
X162366667Y-95843061D01*
X162096954Y-96545686D01*
X162094470Y-96551683D01*
X161788356Y-97239228D01*
X161785561Y-97245088D01*
X161443879Y-97915676D01*
X161440781Y-97921381D01*
X161064478Y-98573158D01*
X161061086Y-98578693D01*
X160651186Y-99209884D01*
X160647509Y-99215234D01*
X160205140Y-99824102D01*
X160201188Y-99829253D01*
X159727546Y-100414151D01*
X159723330Y-100419087D01*
X159219735Y-100978387D01*
X159215266Y-100983096D01*
X158683096Y-101515266D01*
X158678387Y-101519735D01*
X158119087Y-102023330D01*
X158114151Y-102027546D01*
X157529253Y-102501188D01*
X157524102Y-102505140D01*
X156915234Y-102947509D01*
X156909884Y-102951186D01*
X156278693Y-103361086D01*
X156273158Y-103364478D01*
X155621381Y-103740781D01*
X155615676Y-103743879D01*
X154945088Y-104085561D01*
X154939228Y-104088356D01*
X154251683Y-104394470D01*
X154245686Y-104396954D01*
X153543061Y-104666667D01*
X153536941Y-104668834D01*
X152821174Y-104901401D01*
X152814950Y-104903245D01*
X152087966Y-105098040D01*
X152081653Y-105099555D01*
X151345499Y-105256029D01*
X151339116Y-105257212D01*
X150595784Y-105374945D01*
X150589347Y-105375793D01*
X149840839Y-105454464D01*
X149834368Y-105454973D01*
X149082797Y-105494361D01*
X149076307Y-105494531D01*
X148323693Y-105494531D01*
X148317203Y-105494361D01*
X147565631Y-105454973D01*
X147559160Y-105454464D01*
X146810652Y-105375793D01*
X146804215Y-105374945D01*
X146060883Y-105257212D01*
X146054500Y-105256029D01*
X145318346Y-105099555D01*
X145312033Y-105098040D01*
X144585049Y-104903245D01*
X144578825Y-104901401D01*
X143863058Y-104668834D01*
X143856938Y-104666667D01*
X143154313Y-104396954D01*
X143148316Y-104394470D01*
X142460771Y-104088356D01*
X142454911Y-104085561D01*
X141784323Y-103743879D01*
X141778618Y-103740781D01*
X141126841Y-103364478D01*
X141121306Y-103361086D01*
X140490106Y-102951180D01*
X140484765Y-102947509D01*
X139875897Y-102505140D01*
X139870746Y-102501188D01*
X139285848Y-102027546D01*
X139280912Y-102023330D01*
X138721612Y-101519735D01*
X138716903Y-101515266D01*
X138184733Y-100983096D01*
X138180264Y-100978387D01*
X137676669Y-100419087D01*
X137672453Y-100414151D01*
X137480284Y-100176842D01*
X137419787Y-100102135D01*
X146081879Y-100102135D01*
X146081879Y-101897870D01*
X146081880Y-101897876D01*
X146088287Y-101957483D01*
X146138581Y-102092328D01*
X146138585Y-102092335D01*
X146224831Y-102207544D01*
X146224834Y-102207547D01*
X146340043Y-102293793D01*
X146340050Y-102293797D01*
X146474896Y-102344091D01*
X146474895Y-102344091D01*
X146481823Y-102344835D01*
X146534506Y-102350500D01*
X148330251Y-102350499D01*
X148389862Y-102344091D01*
X148524710Y-102293796D01*
X148639925Y-102207546D01*
X148726175Y-102092331D01*
X148775381Y-101960401D01*
X148817251Y-101904468D01*
X148882716Y-101880050D01*
X148950989Y-101894901D01*
X148979244Y-101916053D01*
X149092914Y-102029723D01*
X149092919Y-102029727D01*
X149264821Y-102154620D01*
X149454161Y-102251095D01*
X149656250Y-102316757D01*
X149722379Y-102327231D01*
X149722379Y-101433012D01*
X149779386Y-101465925D01*
X149906553Y-101500000D01*
X150038205Y-101500000D01*
X150165372Y-101465925D01*
X150222379Y-101433012D01*
X150222379Y-102327230D01*
X150288505Y-102316757D01*
X150288508Y-102316757D01*
X150490596Y-102251095D01*
X150679936Y-102154620D01*
X150851838Y-102029727D01*
X150851843Y-102029723D01*
X151002102Y-101879464D01*
X151002106Y-101879459D01*
X151126999Y-101707557D01*
X151223474Y-101518217D01*
X151289136Y-101316129D01*
X151289136Y-101316126D01*
X151299610Y-101250000D01*
X150405391Y-101250000D01*
X150438304Y-101192993D01*
X150472379Y-101065826D01*
X150472379Y-100934174D01*
X150438304Y-100807007D01*
X150405391Y-100750000D01*
X151299610Y-100750000D01*
X151289136Y-100683873D01*
X151289136Y-100683870D01*
X151223474Y-100481782D01*
X151126999Y-100292442D01*
X151002106Y-100120540D01*
X151002102Y-100120535D01*
X150851843Y-99970276D01*
X150851838Y-99970272D01*
X150679936Y-99845379D01*
X150490594Y-99748903D01*
X150288503Y-99683241D01*
X150222379Y-99672768D01*
X150222379Y-100566988D01*
X150165372Y-100534075D01*
X150038205Y-100500000D01*
X149906553Y-100500000D01*
X149779386Y-100534075D01*
X149722379Y-100566988D01*
X149722379Y-99672768D01*
X149722378Y-99672768D01*
X149656254Y-99683241D01*
X149454163Y-99748903D01*
X149264821Y-99845379D01*
X149092920Y-99970271D01*
X148979244Y-100083947D01*
X148917921Y-100117431D01*
X148848229Y-100112447D01*
X148792296Y-100070575D01*
X148775381Y-100039598D01*
X148726176Y-99907671D01*
X148726172Y-99907664D01*
X148639926Y-99792455D01*
X148639923Y-99792452D01*
X148524714Y-99706206D01*
X148524707Y-99706202D01*
X148389861Y-99655908D01*
X148389862Y-99655908D01*
X148330262Y-99649501D01*
X148330260Y-99649500D01*
X148330252Y-99649500D01*
X148330243Y-99649500D01*
X146534508Y-99649500D01*
X146534502Y-99649501D01*
X146474895Y-99655908D01*
X146340050Y-99706202D01*
X146340043Y-99706206D01*
X146224834Y-99792452D01*
X146224831Y-99792455D01*
X146138585Y-99907664D01*
X146138581Y-99907671D01*
X146088287Y-100042517D01*
X146081880Y-100102116D01*
X146081879Y-100102135D01*
X137419787Y-100102135D01*
X137198811Y-99829253D01*
X137194859Y-99824102D01*
X137171866Y-99792455D01*
X136752479Y-99215218D01*
X136748825Y-99209901D01*
X136338902Y-98578675D01*
X136335532Y-98573176D01*
X135959218Y-97921381D01*
X135956120Y-97915676D01*
X135633926Y-97283335D01*
X135614429Y-97245071D01*
X135611651Y-97239245D01*
X135305527Y-96551679D01*
X135303045Y-96545686D01*
X135033327Y-95843049D01*
X135031165Y-95836941D01*
X134798598Y-95121174D01*
X134796754Y-95114950D01*
X134601959Y-94387966D01*
X134600444Y-94381653D01*
X134443970Y-93645499D01*
X134442787Y-93639116D01*
X134430628Y-93562352D01*
X134325049Y-92895752D01*
X134324209Y-92889376D01*
X134245533Y-92140818D01*
X134245027Y-92134390D01*
X134205639Y-91382795D01*
X134205469Y-91376306D01*
X134205469Y-90868872D01*
X134899500Y-90868872D01*
X134899500Y-91131127D01*
X134905835Y-91179240D01*
X134933730Y-91391116D01*
X134998831Y-91634076D01*
X135001602Y-91644418D01*
X135001605Y-91644428D01*
X135101953Y-91886690D01*
X135101958Y-91886700D01*
X135233075Y-92113803D01*
X135392718Y-92321851D01*
X135392726Y-92321860D01*
X135578140Y-92507274D01*
X135578148Y-92507281D01*
X135786196Y-92666924D01*
X136013299Y-92798041D01*
X136013309Y-92798046D01*
X136233730Y-92889347D01*
X136255581Y-92898398D01*
X136508884Y-92966270D01*
X136768880Y-93000500D01*
X136768887Y-93000500D01*
X137031113Y-93000500D01*
X137031120Y-93000500D01*
X137291116Y-92966270D01*
X137544419Y-92898398D01*
X137786697Y-92798043D01*
X138013803Y-92666924D01*
X138221851Y-92507282D01*
X138221855Y-92507277D01*
X138221860Y-92507274D01*
X138407274Y-92321860D01*
X138407277Y-92321855D01*
X138407282Y-92321851D01*
X138566924Y-92113803D01*
X138698043Y-91886697D01*
X138700661Y-91880378D01*
X138745294Y-91772624D01*
X138798398Y-91644419D01*
X138866270Y-91391116D01*
X138900500Y-91131120D01*
X138900500Y-90893642D01*
X142250979Y-90893642D01*
X142250979Y-91106357D01*
X142284255Y-91316455D01*
X142349985Y-91518755D01*
X142349986Y-91518758D01*
X142414014Y-91644418D01*
X142446558Y-91708288D01*
X142571589Y-91880378D01*
X142722001Y-92030790D01*
X142894091Y-92155821D01*
X142987049Y-92203185D01*
X143083620Y-92252392D01*
X143083623Y-92252393D01*
X143184773Y-92285258D01*
X143285925Y-92318124D01*
X143496021Y-92351400D01*
X143496022Y-92351400D01*
X143708736Y-92351400D01*
X143708737Y-92351400D01*
X143918833Y-92318124D01*
X144121137Y-92252392D01*
X144310667Y-92155821D01*
X144482757Y-92030790D01*
X144633169Y-91880378D01*
X144758200Y-91708288D01*
X144854771Y-91518758D01*
X144920503Y-91316454D01*
X144953779Y-91106358D01*
X144953779Y-90893642D01*
X144920503Y-90683546D01*
X144854771Y-90481242D01*
X144854771Y-90481241D01*
X144758199Y-90291711D01*
X144633169Y-90119622D01*
X144614802Y-90101255D01*
X147331479Y-90101255D01*
X147331479Y-90750000D01*
X148137475Y-90750000D01*
X148126156Y-90769605D01*
X148085479Y-90921417D01*
X148085479Y-91078583D01*
X148126156Y-91230395D01*
X148137475Y-91250000D01*
X147331479Y-91250000D01*
X147331479Y-91898744D01*
X147337880Y-91958272D01*
X147337882Y-91958279D01*
X147388124Y-92092986D01*
X147388128Y-92092993D01*
X147474288Y-92208087D01*
X147474291Y-92208090D01*
X147589385Y-92294250D01*
X147589392Y-92294254D01*
X147724099Y-92344496D01*
X147724106Y-92344498D01*
X147783634Y-92350899D01*
X147783651Y-92350900D01*
X148432379Y-92350900D01*
X148432379Y-91544903D01*
X148451984Y-91556223D01*
X148603796Y-91596900D01*
X148760962Y-91596900D01*
X148912774Y-91556223D01*
X148932379Y-91544903D01*
X148932379Y-92350900D01*
X149581107Y-92350900D01*
X149581123Y-92350899D01*
X149640651Y-92344498D01*
X149640658Y-92344496D01*
X149775365Y-92294254D01*
X149775372Y-92294250D01*
X149890466Y-92208090D01*
X149890469Y-92208087D01*
X149976629Y-92092993D01*
X149976633Y-92092986D01*
X150026875Y-91958279D01*
X150026877Y-91958272D01*
X150033278Y-91898744D01*
X150033279Y-91898727D01*
X150033279Y-91250000D01*
X149227283Y-91250000D01*
X149238602Y-91230395D01*
X149279279Y-91078583D01*
X149279279Y-90921417D01*
X149271837Y-90893642D01*
X152410979Y-90893642D01*
X152410979Y-91106357D01*
X152444255Y-91316455D01*
X152509985Y-91518755D01*
X152509986Y-91518758D01*
X152574014Y-91644418D01*
X152606558Y-91708288D01*
X152731589Y-91880378D01*
X152882001Y-92030790D01*
X153054091Y-92155821D01*
X153147049Y-92203185D01*
X153243620Y-92252392D01*
X153243623Y-92252393D01*
X153344773Y-92285258D01*
X153445925Y-92318124D01*
X153656021Y-92351400D01*
X153656022Y-92351400D01*
X153868736Y-92351400D01*
X153868737Y-92351400D01*
X154078833Y-92318124D01*
X154281137Y-92252392D01*
X154470667Y-92155821D01*
X154642757Y-92030790D01*
X154793169Y-91880378D01*
X154918200Y-91708288D01*
X155014771Y-91518758D01*
X155080503Y-91316454D01*
X155113779Y-91106358D01*
X155113779Y-90893642D01*
X155109856Y-90868872D01*
X158499500Y-90868872D01*
X158499500Y-91131127D01*
X158505835Y-91179240D01*
X158533730Y-91391116D01*
X158598831Y-91634076D01*
X158601602Y-91644418D01*
X158601605Y-91644428D01*
X158701953Y-91886690D01*
X158701958Y-91886700D01*
X158833075Y-92113803D01*
X158992718Y-92321851D01*
X158992726Y-92321860D01*
X159178140Y-92507274D01*
X159178148Y-92507281D01*
X159386196Y-92666924D01*
X159613299Y-92798041D01*
X159613309Y-92798046D01*
X159833730Y-92889347D01*
X159855581Y-92898398D01*
X160108884Y-92966270D01*
X160368880Y-93000500D01*
X160368887Y-93000500D01*
X160631113Y-93000500D01*
X160631120Y-93000500D01*
X160891116Y-92966270D01*
X161144419Y-92898398D01*
X161386697Y-92798043D01*
X161613803Y-92666924D01*
X161821851Y-92507282D01*
X161821855Y-92507277D01*
X161821860Y-92507274D01*
X162007274Y-92321860D01*
X162007277Y-92321855D01*
X162007282Y-92321851D01*
X162166924Y-92113803D01*
X162298043Y-91886697D01*
X162300661Y-91880378D01*
X162345294Y-91772624D01*
X162398398Y-91644419D01*
X162466270Y-91391116D01*
X162500500Y-91131120D01*
X162500500Y-90868880D01*
X162466270Y-90608884D01*
X162398398Y-90355581D01*
X162345294Y-90227376D01*
X162298046Y-90113309D01*
X162298041Y-90113299D01*
X162166924Y-89886196D01*
X162007281Y-89678148D01*
X162007274Y-89678140D01*
X161821860Y-89492726D01*
X161821851Y-89492718D01*
X161613803Y-89333075D01*
X161386700Y-89201958D01*
X161386690Y-89201953D01*
X161144428Y-89101605D01*
X161144421Y-89101603D01*
X161144419Y-89101602D01*
X160891116Y-89033730D01*
X160833339Y-89026123D01*
X160631127Y-88999500D01*
X160631120Y-88999500D01*
X160368880Y-88999500D01*
X160368872Y-88999500D01*
X160137772Y-89029926D01*
X160108884Y-89033730D01*
X159855581Y-89101602D01*
X159855571Y-89101605D01*
X159613309Y-89201953D01*
X159613299Y-89201958D01*
X159386196Y-89333075D01*
X159178148Y-89492718D01*
X158992718Y-89678148D01*
X158833075Y-89886196D01*
X158701958Y-90113299D01*
X158701953Y-90113309D01*
X158601605Y-90355571D01*
X158601602Y-90355581D01*
X158533730Y-90608884D01*
X158532208Y-90620447D01*
X158499500Y-90868872D01*
X155109856Y-90868872D01*
X155080503Y-90683546D01*
X155014771Y-90481242D01*
X155014771Y-90481241D01*
X154918199Y-90291711D01*
X154793169Y-90119622D01*
X154642757Y-89969210D01*
X154470667Y-89844179D01*
X154281137Y-89747607D01*
X154281134Y-89747606D01*
X154078834Y-89681876D01*
X153973785Y-89665238D01*
X153868737Y-89648600D01*
X153656021Y-89648600D01*
X153585989Y-89659692D01*
X153445923Y-89681876D01*
X153243623Y-89747606D01*
X153243620Y-89747607D01*
X153054090Y-89844179D01*
X152996258Y-89886197D01*
X152882001Y-89969210D01*
X152881999Y-89969212D01*
X152881998Y-89969212D01*
X152731591Y-90119619D01*
X152731591Y-90119620D01*
X152731589Y-90119622D01*
X152694379Y-90170837D01*
X152606558Y-90291711D01*
X152509986Y-90481241D01*
X152509985Y-90481244D01*
X152444255Y-90683544D01*
X152410979Y-90893642D01*
X149271837Y-90893642D01*
X149238602Y-90769605D01*
X149227283Y-90750000D01*
X150033279Y-90750000D01*
X150033279Y-90101272D01*
X150033278Y-90101255D01*
X150026877Y-90041727D01*
X150026875Y-90041720D01*
X149976633Y-89907013D01*
X149976629Y-89907006D01*
X149890469Y-89791912D01*
X149890466Y-89791909D01*
X149775372Y-89705749D01*
X149775365Y-89705745D01*
X149640658Y-89655503D01*
X149640651Y-89655501D01*
X149581123Y-89649100D01*
X148932379Y-89649100D01*
X148932379Y-90455096D01*
X148912774Y-90443777D01*
X148760962Y-90403100D01*
X148603796Y-90403100D01*
X148451984Y-90443777D01*
X148432379Y-90455096D01*
X148432379Y-89649100D01*
X147783634Y-89649100D01*
X147724106Y-89655501D01*
X147724099Y-89655503D01*
X147589392Y-89705745D01*
X147589385Y-89705749D01*
X147474291Y-89791909D01*
X147474288Y-89791912D01*
X147388128Y-89907006D01*
X147388124Y-89907013D01*
X147337882Y-90041720D01*
X147337880Y-90041727D01*
X147331479Y-90101255D01*
X144614802Y-90101255D01*
X144482757Y-89969210D01*
X144310667Y-89844179D01*
X144121137Y-89747607D01*
X144121134Y-89747606D01*
X143918834Y-89681876D01*
X143813785Y-89665238D01*
X143708737Y-89648600D01*
X143496021Y-89648600D01*
X143425989Y-89659692D01*
X143285923Y-89681876D01*
X143083623Y-89747606D01*
X143083620Y-89747607D01*
X142894090Y-89844179D01*
X142836258Y-89886197D01*
X142722001Y-89969210D01*
X142721999Y-89969212D01*
X142721998Y-89969212D01*
X142571591Y-90119619D01*
X142571591Y-90119620D01*
X142571589Y-90119622D01*
X142534379Y-90170837D01*
X142446558Y-90291711D01*
X142349986Y-90481241D01*
X142349985Y-90481244D01*
X142284255Y-90683544D01*
X142250979Y-90893642D01*
X138900500Y-90893642D01*
X138900500Y-90868880D01*
X138866270Y-90608884D01*
X138798398Y-90355581D01*
X138745294Y-90227376D01*
X138698046Y-90113309D01*
X138698041Y-90113299D01*
X138566924Y-89886196D01*
X138407281Y-89678148D01*
X138407274Y-89678140D01*
X138221860Y-89492726D01*
X138221851Y-89492718D01*
X138013803Y-89333075D01*
X137786700Y-89201958D01*
X137786690Y-89201953D01*
X137544428Y-89101605D01*
X137544421Y-89101603D01*
X137544419Y-89101602D01*
X137291116Y-89033730D01*
X137233339Y-89026123D01*
X137031127Y-88999500D01*
X137031120Y-88999500D01*
X136768880Y-88999500D01*
X136768872Y-88999500D01*
X136537772Y-89029926D01*
X136508884Y-89033730D01*
X136255581Y-89101602D01*
X136255571Y-89101605D01*
X136013309Y-89201953D01*
X136013299Y-89201958D01*
X135786196Y-89333075D01*
X135578148Y-89492718D01*
X135392718Y-89678148D01*
X135233075Y-89886196D01*
X135101958Y-90113299D01*
X135101953Y-90113309D01*
X135001605Y-90355571D01*
X135001602Y-90355581D01*
X134933730Y-90608884D01*
X134932208Y-90620447D01*
X134899500Y-90868872D01*
X134205469Y-90868872D01*
X134205469Y-90623693D01*
X134205639Y-90617204D01*
X134214728Y-90443777D01*
X134245028Y-89865606D01*
X134245533Y-89859184D01*
X134324210Y-89110618D01*
X134325049Y-89104252D01*
X134442787Y-88360880D01*
X134443970Y-88354500D01*
X134445095Y-88349207D01*
X134600449Y-87618324D01*
X134601953Y-87612054D01*
X134796760Y-86885028D01*
X134798591Y-86878846D01*
X135031173Y-86163034D01*
X135033323Y-86156962D01*
X135303051Y-85454296D01*
X135305521Y-85448333D01*
X135611658Y-84760739D01*
X135614422Y-84754943D01*
X135956128Y-84084307D01*
X135959209Y-84078634D01*
X136335542Y-83426806D01*
X136338891Y-83421341D01*
X136748836Y-82790080D01*
X136752466Y-82784799D01*
X136848852Y-82652135D01*
X150199500Y-82652135D01*
X150199500Y-84347870D01*
X150199501Y-84347876D01*
X150205908Y-84407483D01*
X150256202Y-84542328D01*
X150256206Y-84542335D01*
X150342452Y-84657544D01*
X150342455Y-84657547D01*
X150457664Y-84743793D01*
X150457671Y-84743797D01*
X150592517Y-84794091D01*
X150592516Y-84794091D01*
X150599444Y-84794835D01*
X150652127Y-84800500D01*
X152347872Y-84800499D01*
X152407483Y-84794091D01*
X152542331Y-84743796D01*
X152657546Y-84657546D01*
X152743796Y-84542331D01*
X152794091Y-84407483D01*
X152800500Y-84347873D01*
X152800499Y-82652128D01*
X152794091Y-82592517D01*
X152743796Y-82457669D01*
X152743795Y-82457668D01*
X152743793Y-82457664D01*
X152657547Y-82342455D01*
X152657544Y-82342452D01*
X152542335Y-82256206D01*
X152542328Y-82256202D01*
X152407482Y-82205908D01*
X152407483Y-82205908D01*
X152347883Y-82199501D01*
X152347881Y-82199500D01*
X152347873Y-82199500D01*
X152347864Y-82199500D01*
X152344548Y-82199322D01*
X152344632Y-82197742D01*
X152283579Y-82179815D01*
X152237824Y-82127011D01*
X152230173Y-82083725D01*
X151546447Y-81400000D01*
X151552661Y-81400000D01*
X151654394Y-81372741D01*
X151745606Y-81320080D01*
X151820080Y-81245606D01*
X151872741Y-81154394D01*
X151900000Y-81052661D01*
X151900000Y-81046448D01*
X152579474Y-81725922D01*
X152579474Y-81725921D01*
X152611859Y-81681349D01*
X152704755Y-81499031D01*
X152767990Y-81304417D01*
X152800000Y-81102317D01*
X152800000Y-80897682D01*
X152767990Y-80695582D01*
X152704755Y-80500968D01*
X152611859Y-80318650D01*
X152579474Y-80274077D01*
X152579474Y-80274076D01*
X151900000Y-80953551D01*
X151900000Y-80947339D01*
X151872741Y-80845606D01*
X151820080Y-80754394D01*
X151745606Y-80679920D01*
X151654394Y-80627259D01*
X151552661Y-80600000D01*
X151546446Y-80600000D01*
X152225922Y-79920524D01*
X152225921Y-79920523D01*
X152181359Y-79888147D01*
X152181350Y-79888141D01*
X151999031Y-79795244D01*
X151804417Y-79732009D01*
X151602317Y-79700000D01*
X151397683Y-79700000D01*
X151195582Y-79732009D01*
X151000968Y-79795244D01*
X150818644Y-79888143D01*
X150774077Y-79920523D01*
X150774077Y-79920524D01*
X151453554Y-80600000D01*
X151447339Y-80600000D01*
X151345606Y-80627259D01*
X151254394Y-80679920D01*
X151179920Y-80754394D01*
X151127259Y-80845606D01*
X151100000Y-80947339D01*
X151100000Y-80953553D01*
X150420524Y-80274077D01*
X150420523Y-80274077D01*
X150388143Y-80318644D01*
X150295244Y-80500968D01*
X150232009Y-80695582D01*
X150200000Y-80897682D01*
X150200000Y-81102317D01*
X150232009Y-81304417D01*
X150295244Y-81499031D01*
X150388141Y-81681350D01*
X150388147Y-81681359D01*
X150420523Y-81725921D01*
X150420524Y-81725922D01*
X151100000Y-81046446D01*
X151100000Y-81052661D01*
X151127259Y-81154394D01*
X151179920Y-81245606D01*
X151254394Y-81320080D01*
X151345606Y-81372741D01*
X151447339Y-81400000D01*
X151453553Y-81400000D01*
X150769067Y-82084483D01*
X150758633Y-82134150D01*
X150709581Y-82183906D01*
X150655365Y-82198000D01*
X150655423Y-82199099D01*
X150655429Y-82199146D01*
X150655426Y-82199146D01*
X150655436Y-82199324D01*
X150652123Y-82199501D01*
X150592516Y-82205908D01*
X150457671Y-82256202D01*
X150457664Y-82256206D01*
X150342455Y-82342452D01*
X150342452Y-82342455D01*
X150256206Y-82457664D01*
X150256202Y-82457671D01*
X150205908Y-82592517D01*
X150199501Y-82652116D01*
X150199501Y-82652123D01*
X150199500Y-82652135D01*
X136848852Y-82652135D01*
X137194878Y-82175872D01*
X137198792Y-82170770D01*
X137672459Y-81585840D01*
X137676669Y-81580912D01*
X137750395Y-81499031D01*
X138180282Y-81021592D01*
X138184714Y-81016922D01*
X138716922Y-80484714D01*
X138721592Y-80480282D01*
X139280920Y-79976662D01*
X139285848Y-79972453D01*
X139349975Y-79920524D01*
X139870770Y-79498792D01*
X139875872Y-79494878D01*
X140484799Y-79052466D01*
X140490080Y-79048836D01*
X141121341Y-78638891D01*
X141126806Y-78635542D01*
X141778634Y-78259209D01*
X141784307Y-78256128D01*
X142454943Y-77914422D01*
X142460739Y-77911658D01*
X143148333Y-77605521D01*
X143154296Y-77603051D01*
X143856962Y-77333323D01*
X143863034Y-77331173D01*
X144578846Y-77098591D01*
X144585028Y-77096760D01*
X145312054Y-76901953D01*
X145318324Y-76900449D01*
X146054502Y-76743969D01*
X146060883Y-76742787D01*
X146804252Y-76625049D01*
X146810618Y-76624210D01*
X147559184Y-76545533D01*
X147565606Y-76545028D01*
X148271600Y-76508028D01*
X148317204Y-76505639D01*
X148323693Y-76505469D01*
X149076307Y-76505469D01*
X149082796Y-76505639D01*
G37*
%TD.AperFunction*%
%TD*%
M02*
